<svg width="300" height="32" viewBox="0 0 300 32" fill="none" xmlns="http://www.w3.org/2000/svg"><script xmlns=""/>
<path d="M300 0H0V32H300V0Z" fill="#CC9E75"/>
<path d="M99.2915 21.8316C99.2065 21.6551 98.9517 21.5669 98.7816 21.5669C98.4416 21.8316 98.1016 22.2728 98.3566 22.5817C98.5266 22.8023 98.9517 22.8464 99.2065 22.6699C99.3765 22.5375 99.5465 22.0081 99.2915 21.8316Z" fill="#F7F2EC"/>
<path d="M168.829 3.21269C168.999 4.00685 169.764 4.05097 170.444 4.18333C171.124 4.31569 171.634 3.34505 170.954 3.03621C170.359 2.81561 169.509 2.85973 168.829 3.21269Z" fill="#083640"/>
<path d="M98.6124 3.12473C98.8674 3.56593 99.0375 4.00713 99.5475 4.31597C100.057 4.58069 100.822 4.53657 101.077 4.09537C101.332 3.69829 100.907 3.21297 100.397 2.99237C99.8875 2.77177 99.3775 2.63941 98.9524 2.33057C98.6974 2.72765 98.5274 3.16885 98.4424 3.61005" fill="#083640"/>
<path d="M11.3933 27.3024C12.0733 26.7289 12.5834 25.67 11.7333 25.2288C11.1383 24.92 10.2032 25.317 10.0331 25.8906C9.86314 26.4642 10.3732 27.0377 10.9682 27.3466" fill="#083640"/>
<path d="M94.0213 4.22754C93.8513 3.9187 93.5112 3.6981 93.1712 3.60986C93.0862 4.00694 93.0862 4.40402 93.1712 4.8011C93.3412 4.84522 93.5112 4.84522 93.6812 4.8011C93.7662 4.53638 93.8513 4.44814 94.0213 4.22754Z" fill="#083640"/>
<path d="M125.05 26.0669C125.22 25.6698 124.54 25.5816 124.115 25.7581C123.69 25.9345 123.69 26.5522 124.2 26.7287C124.625 26.8611 125.22 26.464 125.05 26.0669Z" fill="#083640"/>
<path d="M34.7705 12.7428C34.5155 12.5663 34.0054 12.3898 33.4104 12.3457C33.2404 12.6104 33.2404 12.8751 33.3254 13.0957C33.5804 13.1399 33.8354 13.0957 34.0904 13.0957C34.4305 12.9634 34.6005 12.9193 34.7705 12.7428Z" fill="#083640"/>
<path d="M32.6456 6.1689C32.4756 5.81594 31.5405 5.77182 30.8604 5.7277C30.0953 5.68358 29.5853 6.12478 30.2653 6.25714C31.0304 6.34538 31.9655 6.30126 32.6456 6.1689Z" fill="#083640"/>
<path d="M52.7931 12.831C53.0481 12.4781 51.858 12.1251 50.9229 12.2575C50.7529 12.4781 50.8379 12.7428 51.1779 12.9193C51.518 12.9193 52.4531 12.9634 52.7931 12.831Z" fill="#083640"/>
<path d="M56.5328 26.9933C56.4478 26.5521 55.7677 26.1109 54.7476 25.8462C54.0676 26.155 53.9826 26.6404 54.5776 26.9492C55.3427 27.0816 56.6178 27.258 56.5328 26.9933Z" fill="#083640"/>
<path d="M41.8258 24.2141C41.6558 24.1258 41.3157 24.0376 40.9757 24.0376C40.4657 24.2141 39.9556 24.4788 40.2956 24.6994C40.5507 24.8318 41.2307 24.8759 41.6558 24.7435C41.9958 24.6994 42.2508 24.3464 41.8258 24.2141Z" fill="#083640"/>
<path d="M92.3218 18.4345C92.4918 18.4345 92.5769 18.5227 92.4068 18.5668C91.5567 18.8316 91.3867 19.1404 90.1116 19.0963C89.9416 19.0963 89.6866 19.0963 89.6016 19.0522C89.2615 18.9639 89.6016 18.8316 89.7716 18.6551C89.9416 18.3904 91.4717 18.3904 92.3218 18.4345Z" fill="#083640"/>
<path d="M82.4596 26.9934C82.7147 26.7287 81.6946 26.6845 80.9295 26.8169C80.2494 26.9493 80.3344 27.3463 81.0145 27.4346C81.7796 27.5228 82.6297 27.2581 82.4596 26.9934Z" fill="#083640"/>
<path d="M114.508 6.21285C114.253 5.99225 113.998 5.81577 113.488 5.68341C112.978 5.55105 112.043 5.59517 111.788 5.77165C111.533 5.94813 111.958 6.16872 112.468 6.30108C112.978 6.43344 113.573 6.47757 114.083 6.60993C114.338 6.43345 114.593 6.21285 114.593 5.99225" fill="#083640"/>
<path d="M243.381 22.8906C243.551 23.2876 243.976 23.5965 244.486 23.6406C244.571 23.1553 244.656 22.6258 244.571 22.1405C244.316 22.0964 244.146 22.0964 243.891 22.1405C243.721 22.4494 243.551 22.5817 243.381 22.8906Z" fill="#083640"/>
<path d="M228.335 22.7138C228.08 23.3756 229.1 24.0815 229.95 23.8168C230.12 23.3756 230.035 22.8903 229.695 22.5373C229.355 22.5373 228.59 22.4932 228.335 22.7138Z" fill="#083640"/>
<path d="M280.19 22.0523C280.02 22.0523 280.02 21.8758 280.105 21.7876C280.785 21.3023 280.955 20.6846 281.975 20.6846C282.145 20.6846 282.315 20.6846 282.4 20.7728C282.655 20.9493 282.4 21.2581 282.315 21.5229C282.145 22.1847 280.87 22.1405 280.19 22.0523Z" fill="#083640"/>
<path d="M288.436 5.15429C288.181 5.63961 289.116 5.77197 289.711 5.55137C290.306 5.33077 290.221 4.53661 289.626 4.31601C289.031 4.09541 288.266 4.62485 288.436 5.15429Z" fill="#083640"/>
<path d="M251.287 8.55132C251.967 9.03664 253.157 9.3896 253.667 8.77192C254.007 8.33072 253.582 7.66892 252.902 7.53656C252.222 7.44832 251.542 7.80128 251.202 8.24248" fill="#083640"/>
<path d="M235.561 12.7867C235.986 13.0073 236.411 13.272 236.836 13.4926C237.601 13.2279 237.601 12.169 236.836 11.9043C236.326 12.0808 235.646 12.3455 235.561 12.7867Z" fill="#083640"/>
<path d="M253.157 14.8605C253.242 15.2576 254.262 15.3017 254.772 15.2135C255.027 14.684 254.857 14.0663 254.262 13.7134C253.667 13.8016 253.157 14.3311 253.157 14.8605Z" fill="#083640"/>
<path d="M184.046 11.6838C184.301 11.5956 184.471 11.375 184.471 11.1103C184.046 10.7573 183.366 10.4044 182.77 10.6691C182.43 10.8456 182.345 11.2868 182.6 11.5515C182.94 11.8162 183.791 11.9486 184.046 11.6838Z" fill="#083640"/>
<path d="M29.8408 3.03634C29.8408 3.1687 29.5858 3.21282 29.5008 3.12458C28.9058 2.55102 28.0557 2.37454 28.0557 1.49214C28.0557 1.35978 28.0557 1.22742 28.1407 1.09506C28.3957 0.87446 28.8207 1.09506 29.1608 1.1833C30.0109 1.35978 29.9259 2.46278 29.8408 3.03634Z" fill="#F7F2EC"/>
<path d="M63.5038 19.3164C64.0139 19.1399 64.0139 18.831 64.3539 18.4781C64.694 18.081 64.609 17.4633 64.0989 17.2427C63.5889 17.0662 62.9938 17.3751 62.7388 17.7722C62.3987 18.1692 62.3137 18.6104 61.8887 18.9193C62.3987 19.1399 62.9088 19.2722 63.5038 19.3164Z" fill="#F7F2EC"/>
<path d="M19.9784 26.5522C20.4884 26.464 20.5734 25.5375 20.4884 25.1404C19.8084 24.9198 18.8733 25.0963 18.4482 25.5375C18.6182 26.111 19.2983 26.5522 19.9784 26.5522Z" fill="#F7F2EC"/>
<path d="M105.753 5.24221C105.923 4.71277 105.158 4.18333 104.478 4.35981C104.393 4.71277 104.393 5.06573 104.648 5.37457C104.903 5.33045 105.498 5.37457 105.753 5.24221Z" fill="#F7F2EC"/>
<path d="M108.218 26.9492C108.218 26.2874 107.708 25.6256 107.028 25.2285C106.602 25.7138 106.517 26.4198 106.943 26.9492C107.453 27.0816 108.218 27.3463 108.218 26.9492Z" fill="#F7F2EC"/>
<path d="M131.425 13.8015C131.51 13.8015 131.595 13.9339 131.51 13.978C131 14.3751 130.83 14.8163 130.065 14.8163C129.98 14.8163 129.81 14.8163 129.725 14.728C129.47 14.5957 129.725 14.3751 129.81 14.1545C129.98 13.7133 130.915 13.7574 131.425 13.8015Z" fill="#F7F2EC"/>
<path d="M153.953 24.302C153.442 23.905 152.507 23.6402 152.082 24.1256C151.827 24.4785 152.167 25.008 152.677 25.0962C153.187 25.1844 153.698 24.9197 153.953 24.5226" fill="#F7F2EC"/>
<path d="M166.193 21.0374C165.853 20.8609 165.513 20.6403 165.173 20.4639C164.578 20.6403 164.578 21.4786 165.173 21.6992C165.598 21.5669 166.108 21.3463 166.193 21.0374Z" fill="#F7F2EC"/>
<path d="M152.507 19.405C152.422 19.0961 151.657 19.052 151.232 19.1402C151.062 19.5373 151.232 20.0226 151.572 20.3315C152.082 20.1991 152.507 19.802 152.507 19.405Z" fill="#F7F2EC"/>
<path d="M212.523 7.8454C213.033 7.71304 213.373 7.36008 213.458 6.91888C212.863 6.83064 212.183 6.78652 211.588 6.87476C211.503 7.05124 211.503 7.22772 211.588 7.4042C212.013 7.58068 212.183 7.71304 212.523 7.8454Z" fill="#F7F2EC"/>
<path d="M228.93 6.43347C229.865 6.34523 229.95 5.72755 230.035 5.24223C230.205 4.71279 229.1 4.35983 228.76 4.84515C228.505 5.33047 228.505 5.94815 228.93 6.43347Z" fill="#F7F2EC"/>
<path d="M212.353 19.8461C213.203 20.0225 214.053 19.2284 213.713 18.5666C213.203 18.4342 212.523 18.5225 212.098 18.7431C212.098 19.0519 212.098 19.6696 212.353 19.8461Z" fill="#F7F2EC"/>
<path d="M177.245 22.4049C178.35 22.3608 179.37 21.9196 180.05 21.2136C179.285 20.7283 178.095 20.6842 177.33 21.1254C176.99 21.6107 176.565 22.449 177.245 22.4049Z" fill="#F7F2EC"/>
<path d="M195.691 30.126C196.286 30.3025 196.456 29.5966 196.201 29.1112C195.946 28.67 194.926 28.7142 194.671 29.1995C194.416 29.6848 195.096 30.2584 195.691 30.126Z" fill="#F7F2EC"/>
<path d="M274.579 10.0515C274.494 9.52208 273.899 9.47796 273.474 9.43384C273.049 9.3456 272.709 10.0074 273.134 10.1839C273.644 10.3162 274.239 10.2721 274.579 10.0515Z" fill="#F7F2EC"/>
<path d="M269.989 27.3906C269.819 27.0818 269.649 26.817 269.394 26.6406C269.054 26.4641 268.544 26.5082 268.374 26.7729C268.204 27.0376 268.459 27.3465 268.799 27.523C269.139 27.6994 269.479 27.7436 269.734 27.9642C269.904 27.6994 269.989 27.4347 270.074 27.1259" fill="#F7F2EC"/>
</svg>