<svg width="300" height="32" viewBox="0 0 300 32" fill="none" xmlns="http://www.w3.org/2000/svg"><script xmlns=""/>
<path d="M300 0H0V32H300V0Z" fill="#326F84"/>
<path d="M99.613 21.8316C99.5287 21.6551 99.2756 21.5669 99.1068 21.5669C98.7694 21.8316 98.432 22.2728 98.685 22.5817C98.8538 22.8023 99.2756 22.8464 99.5287 22.6699C99.6974 22.5375 99.8661 22.0081 99.613 21.8316Z" fill="#F7F2EC"/>
<path d="M168.621 3.21269C168.79 4.00685 169.549 4.05097 170.224 4.18333C170.899 4.31569 171.405 3.34505 170.73 3.03621C170.14 2.81561 169.296 2.85973 168.621 3.21269Z" fill="#083640"/>
<path d="M98.9383 3.12448C99.1913 3.56568 99.3601 4.00688 99.8662 4.31572C100.372 4.58044 101.132 4.53632 101.385 4.09512C101.638 3.69804 101.216 3.21272 100.71 2.99212C100.204 2.77152 99.6975 2.63916 99.2757 2.33032C99.0226 2.7274 98.8539 3.1686 98.7695 3.6098" fill="#083640"/>
<path d="M12.3827 27.3024C13.0576 26.7289 13.5638 25.67 12.7201 25.2288C12.1296 24.92 11.2016 25.317 11.0329 25.8906C10.8642 26.4642 11.3703 27.0377 11.9609 27.3466" fill="#083640"/>
<path d="M94.3825 4.22754C94.2138 3.9187 93.8763 3.6981 93.5389 3.60986C93.4545 4.00694 93.4545 4.40402 93.5389 4.8011C93.7076 4.84522 93.8763 4.84522 94.045 4.8011C94.1294 4.53638 94.2138 4.44814 94.3825 4.22754Z" fill="#083640"/>
<path d="M125.175 26.0671C125.344 25.6701 124.669 25.5818 124.247 25.7583C123.825 25.9348 123.825 26.5525 124.331 26.7289C124.753 26.8613 125.344 26.4642 125.175 26.0671Z" fill="#083640"/>
<path d="M35.5824 12.7428C35.3293 12.5663 34.8231 12.3898 34.2325 12.3457C34.0638 12.6104 34.0638 12.8751 34.1482 13.0957C34.4013 13.1399 34.6544 13.0957 34.9074 13.0957C35.2449 12.9634 35.4136 12.9193 35.5824 12.7428Z" fill="#083640"/>
<path d="M33.4737 6.1689C33.305 5.81594 32.377 5.77182 31.7021 5.7277C30.9428 5.68358 30.4367 6.12478 31.1116 6.25714C31.8708 6.34538 32.7988 6.30126 33.4737 6.1689Z" fill="#083640"/>
<path d="M53.4667 12.831C53.7198 12.4781 52.5387 12.1251 51.6107 12.2575C51.442 12.4781 51.5264 12.7428 51.8638 12.9193C52.2013 12.9193 53.1293 12.9634 53.4667 12.831Z" fill="#083640"/>
<path d="M57.179 26.9936C57.0946 26.5524 56.4197 26.1112 55.4074 25.8464C54.7325 26.1553 54.6481 26.6406 55.2387 26.9494C55.9979 27.0818 57.2634 27.2583 57.179 26.9936Z" fill="#083640"/>
<path d="M42.5848 24.2141C42.4161 24.1258 42.0786 24.0376 41.7412 24.0376C41.235 24.2141 40.7288 24.4788 41.0663 24.6994C41.3194 24.8318 41.9943 24.8759 42.4161 24.7435C42.7535 24.6994 43.0066 24.3464 42.5848 24.2141Z" fill="#083640"/>
<path d="M92.6955 18.4342C92.8643 18.4342 92.9486 18.5225 92.7799 18.5666C91.9363 18.8313 91.7676 19.1401 90.5021 19.096C90.3334 19.096 90.0803 19.096 89.9959 19.0519C89.6585 18.9637 89.9959 18.8313 90.1647 18.6548C90.3334 18.3901 91.8519 18.3901 92.6955 18.4342Z" fill="#083640"/>
<path d="M82.9093 26.9934C83.1624 26.7287 82.15 26.6845 81.3908 26.8169C80.7159 26.9493 80.8002 27.3463 81.4751 27.4346C82.2344 27.5228 83.078 27.2581 82.9093 26.9934Z" fill="#083640"/>
<path d="M114.714 6.21309C114.461 5.99249 114.208 5.81601 113.701 5.68365C113.195 5.55129 112.267 5.59541 112.014 5.77189C111.761 5.94837 112.183 6.16897 112.689 6.30133C113.195 6.43369 113.786 6.47781 114.292 6.61017C114.545 6.43369 114.798 6.21309 114.798 5.99249" fill="#083640"/>
<path d="M242.607 22.8903C242.776 23.2874 243.198 23.5962 243.704 23.6403C243.788 23.155 243.873 22.6256 243.788 22.1403C243.535 22.0961 243.367 22.0961 243.114 22.1403C242.945 22.4491 242.776 22.5815 242.607 22.8903Z" fill="#083640"/>
<path d="M227.675 22.714C227.422 23.3758 228.435 24.0817 229.278 23.817C229.447 23.3758 229.363 22.8905 229.025 22.5375C228.688 22.5375 227.928 22.4934 227.675 22.714Z" fill="#083640"/>
<path d="M279.136 22.0523C278.967 22.0523 278.967 21.8758 279.052 21.7876C279.726 21.3023 279.895 20.6846 280.907 20.6846C281.076 20.6846 281.245 20.6846 281.329 20.7728C281.582 20.9493 281.329 21.2581 281.245 21.5229C281.076 22.1847 279.811 22.1405 279.136 22.0523Z" fill="#083640"/>
<path d="M287.319 5.15404C287.066 5.63936 287.994 5.77172 288.585 5.55112C289.175 5.33052 289.091 4.53636 288.5 4.31576C287.91 4.09516 287.15 4.6246 287.319 5.15404Z" fill="#083640"/>
<path d="M250.453 8.55132C251.127 9.03664 252.308 9.3896 252.815 8.77192C253.152 8.33072 252.73 7.66892 252.055 7.53656C251.381 7.44832 250.706 7.80128 250.368 8.24248" fill="#083640"/>
<path d="M234.846 12.7869C235.268 13.0075 235.689 13.2723 236.111 13.4929C236.87 13.2281 236.87 12.1693 236.111 11.9045C235.605 12.081 234.93 12.3457 234.846 12.7869Z" fill="#083640"/>
<path d="M252.309 14.8605C252.393 15.2576 253.405 15.3017 253.911 15.2135C254.165 14.684 253.996 14.0663 253.405 13.7134C252.815 13.8016 252.309 14.3311 252.309 14.8605Z" fill="#083640"/>
<path d="M183.722 11.6838C183.975 11.5956 184.144 11.375 184.144 11.1103C183.722 10.7573 183.047 10.4044 182.457 10.6691C182.119 10.8456 182.035 11.2868 182.288 11.5515C182.625 11.8162 183.469 11.9486 183.722 11.6838Z" fill="#083640"/>
<path d="M30.6896 3.03634C30.6896 3.1687 30.4365 3.21282 30.3521 3.12458C29.7616 2.55102 28.918 2.37454 28.918 1.49214C28.918 1.35978 28.918 1.22742 29.0023 1.09506C29.2554 0.87446 29.6772 1.09506 30.0147 1.1833C30.8583 1.35978 30.7739 2.46278 30.6896 3.03634Z" fill="#F7F2EC"/>
<path d="M64.097 19.3166C64.6032 19.1401 64.6032 18.8313 64.9406 18.4783C65.2781 18.0813 65.1937 17.4636 64.6876 17.243C64.1814 17.0665 63.5909 17.3753 63.3378 17.7724C63.0003 18.1695 62.916 18.6107 62.4941 18.9195C63.0003 19.1401 63.5065 19.2725 64.097 19.3166Z" fill="#F7F2EC"/>
<path d="M20.9033 26.5522C21.4095 26.464 21.4938 25.5375 21.4095 25.1404C20.7346 24.9198 19.8066 25.0963 19.3848 25.5375C19.5535 26.111 20.2284 26.5522 20.9033 26.5522Z" fill="#F7F2EC"/>
<path d="M106.025 5.24221C106.194 4.71277 105.434 4.18333 104.759 4.35981C104.675 4.71277 104.675 5.06573 104.928 5.37457C105.181 5.33045 105.772 5.37457 106.025 5.24221Z" fill="#F7F2EC"/>
<path d="M108.471 26.9494C108.471 26.2876 107.965 25.6258 107.29 25.2288C106.869 25.7141 106.784 26.42 107.206 26.9494C107.712 27.0818 108.471 27.3465 108.471 26.9494Z" fill="#F7F2EC"/>
<path d="M131.502 13.8018C131.586 13.8018 131.671 13.9341 131.586 13.9782C131.08 14.3753 130.911 14.8165 130.152 14.8165C130.068 14.8165 129.899 14.8165 129.815 14.7283C129.562 14.5959 129.815 14.3753 129.899 14.1547C130.068 13.7135 130.996 13.7576 131.502 13.8018Z" fill="#F7F2EC"/>
<path d="M153.858 24.3023C153.352 23.9052 152.424 23.6405 152.002 24.1258C151.749 24.4788 152.086 25.0082 152.593 25.0964C153.099 25.1847 153.605 24.92 153.858 24.5229" fill="#F7F2EC"/>
<path d="M166.006 21.0374C165.669 20.8609 165.331 20.6403 164.994 20.4639C164.403 20.6403 164.403 21.4786 164.994 21.6992C165.415 21.5669 165.922 21.3463 166.006 21.0374Z" fill="#F7F2EC"/>
<path d="M152.424 19.4047C152.34 19.0959 151.581 19.0518 151.159 19.14C150.99 19.5371 151.159 20.0224 151.496 20.3312C152.003 20.1989 152.424 19.8018 152.424 19.4047Z" fill="#F7F2EC"/>
<path d="M211.983 7.8454C212.49 7.71304 212.827 7.36008 212.911 6.91888C212.321 6.83064 211.646 6.78652 211.055 6.87476C210.971 7.05124 210.971 7.22772 211.055 7.4042C211.477 7.58068 211.646 7.71304 211.983 7.8454Z" fill="#F7F2EC"/>
<path d="M228.265 6.43347C229.193 6.34523 229.278 5.72755 229.362 5.24223C229.531 4.71279 228.434 4.35983 228.097 4.84515C227.843 5.33047 227.843 5.94815 228.265 6.43347Z" fill="#F7F2EC"/>
<path d="M211.815 19.8461C212.658 20.0225 213.502 19.2284 213.164 18.5666C212.658 18.4342 211.983 18.5225 211.562 18.7431C211.562 19.0519 211.562 19.6696 211.815 19.8461Z" fill="#F7F2EC"/>
<path d="M176.974 22.4051C178.07 22.361 179.083 21.9198 179.757 21.2139C178.998 20.7286 177.817 20.6845 177.058 21.1257C176.72 21.611 176.299 22.4493 176.974 22.4051Z" fill="#F7F2EC"/>
<path d="M195.28 30.126C195.87 30.3025 196.039 29.5966 195.786 29.1112C195.533 28.67 194.521 28.7142 194.268 29.1995C194.014 29.6848 194.689 30.2584 195.28 30.126Z" fill="#F7F2EC"/>
<path d="M273.568 10.0515C273.484 9.52208 272.894 9.47796 272.472 9.43384C272.05 9.3456 271.712 10.0074 272.134 10.1839C272.64 10.3162 273.231 10.2721 273.568 10.0515Z" fill="#F7F2EC"/>
<path d="M269.013 27.3906C268.844 27.0818 268.676 26.817 268.422 26.6406C268.085 26.4641 267.579 26.5082 267.41 26.7729C267.241 27.0376 267.495 27.3465 267.832 27.523C268.169 27.6994 268.507 27.7436 268.76 27.9642C268.929 27.6994 269.013 27.4347 269.097 27.1259" fill="#F7F2EC"/>
</svg>